<svg width="11" height="11" xmlns="http://www.w3.org/2000/svg" fill="none">

 <g>
  <title>Layer 1</title>
  <path id="svg_2" fill="black" d="m0.90259,1.22856l0,7.58125c0,0.69059 0.55938,1.24999 1.25,1.24999l7.58125,0c0.69063,0 1.25005,-0.5594 1.25005,-1.24999l0,-7.58125c0,-0.69062 -0.55942,-1.25 -1.25005,-1.25l-7.58125,0c-0.69062,0 -1.25,0.55938 -1.25,1.25z"/>
  <path id="svg_3" fill="#ffffff" d="m0.37608,1.75507l0,7.58125c0,0.69059 0.55938,1.24999 1.25,1.24999l7.58125,0c0.69063,0 1.25005,-0.5594 1.25005,-1.24999l0,-7.58125c0,-0.69062 -0.55942,-1.25 -1.25005,-1.25l-7.58125,0c-0.69062,0 -1.25,0.55938 -1.25,1.25z"/>
  <path id="svg_1" fill="black" d="m0,2.16876l0,7.58125c0,0.69059 0.55938,1.24999 1.25,1.24999l7.58125,0c0.69063,0 1.25005,-0.5594 1.25005,-1.24999l0,-7.58125c0,-0.69062 -0.55942,-1.25 -1.25005,-1.25l-7.58125,0c-0.69062,0 -1.25,0.55938 -1.25,1.25z"/>
 </g>
</svg>